<svg id="Calque_1" data-name="Calque 1" xmlns="http://www.w3.org/2000/svg" viewBox="0 0 496 179.99"><defs><style>.cls-1,.cls-3{fill:#fff;}.cls-2,.cls-3{isolation:isolate;}.cls-3{font-size:62.96px;font-family:DINAlternate-Bold, DIN Alternate;font-weight:700;}</style></defs><path class="cls-1" d="M185.94,129.34c-.85-.59-1.73-1.16-2.61-1.73l-4.46-2.9,5.75-2.1.78-.28c17.35-6.56,34.44-16.43,50.83-29.35V0L130.94.16V25.48h76.77V78l-.89.8c-7.56,6.7-18.72,13.06-33.19,18.91a119.19,119.19,0,0,1-44.82,8.84,111.49,111.49,0,0,1-50-11.68,80,80,0,0,1-36.2-36.07c-7.76-15.18-12-35.42-12.3-58.66H0V1.3C0,26.4,5.3,49.43,15.75,69.73a106.77,106.77,0,0,0,46.34,46.5c.25.14.51.27.77.4l5.31,2.7-4.77,2.34a99.45,99.45,0,0,0-13.12,7.67c-18.71,13-29.8,31.38-30.73,50.63H48c1.29-13.37,12-22.78,18.53-27.34,13.39-9.35,32.19-14.71,51.58-14.71s38.2,5.36,51.59,14.7c6.54,4.56,17.24,14,18.53,27.34h28.45C215.74,160.69,204.66,142.34,185.94,129.34Z" transform="translate(0 0.02)"/><g class="cls-2"><text class="cls-3" transform="translate(287.51 84.16)">GLÜCK</text><text class="cls-3" transform="translate(287.51 147.12)">DESIGN</text></g><rect class="cls-1" x="291.94" y="171.26" width="94.02" height="8.71"/></svg>